<svg width="20" height="22" viewBox="0 0 20 22" fill="none" xmlns="http://www.w3.org/2000/svg">
    <path fill-rule="evenodd" clip-rule="evenodd"
        d="M18.72 5.20156L10.47 0.6875C10.0219 0.439919 9.47808 0.439919 9.03 0.6875L0.78 5.20344C0.300138 5.46599 0.00124168 5.96894 0 6.51594V15.4822C0.00124168 16.0292 0.300138 16.5321 0.78 16.7947L9.03 21.3106C9.47808 21.5582 10.0219 21.5582 10.47 21.3106L18.72 16.7947C19.1999 16.5321 19.4988 16.0292 19.5 15.4822V6.51687C19.4998 5.96887 19.2007 5.4646 18.72 5.20156ZM9.75 2L17.2819 6.125L14.4909 7.65312L6.95813 3.52812L9.75 2ZM9.75 10.25L2.21812 6.125L5.39625 4.385L12.9281 8.51L9.75 10.25ZM1.5 7.4375L9 11.5419V19.5847L1.5 15.4831V7.4375ZM18 15.4794L10.5 19.5847V11.5456L13.5 9.90406V13.25C13.5 13.6642 13.8358 14 14.25 14C14.6642 14 15 13.6642 15 13.25V9.08281L18 7.4375V15.4784V15.4794Z"
        fill="currentColor"/>
</svg>
